<svg version="1.1" xmlns="http://www.w3.org/2000/svg" viewBox="0 0 502.04005432128906 357" width="502.04005432128906" height="357">
    <!-- svg-source:excalidraw -->

    <defs>
        <style class="style-fonts">
            @font-face {
            font-family: "Virgil";
            src: url("https://unpkg.com/revedraw@1.0.0-alpha.10/dist/excalidraw-assets/Virgil.woff2");
            }
            @font-face {
            font-family: "Cascadia";
            src: url("https://unpkg.com/revedraw@1.0.0-alpha.10/dist/excalidraw-assets/Cascadia.woff2");
            }
        </style>

    </defs>
    <rect x="0" y="0" width="502.04005432128906" height="357" fill="#ffffff"></rect><g stroke-linecap="round"><g transform="translate(110.66668701171875 107.33334350585938) rotate(0 180.8852701670071 1.6936116642365278)"><path d="M0.82 -0.94 C60.99 -0.41, 301.95 2.18, 361.98 2.98 M-0.21 1.18 C59.78 1.9, 301.32 4.23, 361.37 4.33" stroke="#1e1e1e" stroke-width="1" fill="none"></path></g></g><mask></mask><g transform="translate(88.66668701171875 91.33334350585938) rotate(0 2.42999267578125 12.5)"><text x="0" y="0" font-family="HanziPen SC, HanziPen Remote, Virgil, KaiTi, Segoe UI Emoji" font-size="20px" fill="#1e1e1e" text-anchor="start" style="white-space: pre;" direction="ltr" dominant-baseline="text-before-edge">l</text></g><g transform="translate(484.00006103515625 94.66668701171875) rotate(0 4.019996643066406 12.5)"><text x="0" y="0" font-family="HanziPen SC, HanziPen Remote, Virgil, KaiTi, Segoe UI Emoji" font-size="20px" fill="#1e1e1e" text-anchor="start" style="white-space: pre;" direction="ltr" dominant-baseline="text-before-edge">r</text></g><g transform="translate(255.3333740234375 121.33334350585938) rotate(0 14.159988403320312 12.5)"><text x="0" y="0" font-family="HanziPen SC, HanziPen Remote, Virgil, KaiTi, Segoe UI Emoji" font-size="20px" fill="#1e1e1e" text-anchor="start" style="white-space: pre;" direction="ltr" dominant-baseline="text-before-edge">mid</text></g><g stroke-linecap="round"><g transform="translate(109.78141684471166 205.6397318416229) rotate(0 180.636658326271 1.5878379652742183)"><path d="M1.16 -0.17 C61.21 0.27, 300.87 2.32, 360.97 3.08 M0.3 -1.31 C60.12 -0.73, 299.68 3.84, 359.83 4.49" stroke="#1e1e1e" stroke-width="1" fill="none"></path></g></g><mask></mask><g stroke-linecap="round"><g transform="translate(118.66668701171875 301.3333435058594) rotate(0 -1.5993356190622023 -41.63493365181142)"><path d="M0.48 0.09 C-0.03 -13.39, -3.2 -67.81, -3.67 -81.5 M-0.73 -0.91 C-0.82 -14.69, -1.11 -70.05, -1.49 -83.36" stroke="#1e1e1e" stroke-width="1" fill="none"></path></g><g transform="translate(118.66668701171875 301.3333435058594) rotate(0 -1.5993356190622023 -41.63493365181142)"><path d="M9.34 -57 C7.56 -61.68, 4.04 -67.4, -0.56 -82.69 M9.95 -55.98 C6.58 -61.25, 3.9 -68.44, -0.98 -84.1" stroke="#1e1e1e" stroke-width="1" fill="none"></path></g><g transform="translate(118.66668701171875 301.3333435058594) rotate(0 -1.5993356190622023 -41.63493365181142)"><path d="M-11.18 -56.7 C-7.93 -61.53, -6.42 -67.33, -0.56 -82.69 M-10.57 -55.67 C-9.08 -60.87, -6.9 -68.12, -0.98 -84.1" stroke="#1e1e1e" stroke-width="1" fill="none"></path></g></g><mask></mask><g transform="translate(119 322) rotate(0 4.519996643066406 12.5)"><text x="0" y="0" font-family="HanziPen SC, HanziPen Remote, Virgil, KaiTi, Segoe UI Emoji" font-size="20px" fill="#1e1e1e" text-anchor="start" style="white-space: pre;" direction="ltr" dominant-baseline="text-before-edge">k</text></g><g stroke-linecap="round"><g transform="translate(122.66668701171875 36) rotate(0 -0.4021841684961771 34.01367088262922)"><path d="M-0.67 1.03 C-1.04 11.91, -1.77 55.3, -1.98 66.44 M1.18 0.52 C1.18 12.04, 1.09 56.63, 0.39 67.5" stroke="#1e1e1e" stroke-width="1" fill="none"></path></g><g transform="translate(122.66668701171875 36) rotate(0 -0.4021841684961771 34.01367088262922)"><path d="M-7.36 37.95 C-7.25 47.21, -1.86 58.25, 0.17 68.39 M-8.93 39.63 C-5.63 47.43, -2.82 54.57, 0.67 68.12" stroke="#1e1e1e" stroke-width="1" fill="none"></path></g><g transform="translate(122.66668701171875 36) rotate(0 -0.4021841684961771 34.01367088262922)"><path d="M13.15 38.53 C6.66 47.49, 5.44 58.34, 0.17 68.39 M11.58 40.21 C8.94 48.01, 5.81 54.98, 0.67 68.12" stroke="#1e1e1e" stroke-width="1" fill="none"></path></g></g><mask></mask><g transform="translate(118 10) rotate(0 2.589996337890625 12.5)"><text x="0" y="0" font-family="HanziPen SC, HanziPen Remote, Virgil, KaiTi, Segoe UI Emoji" font-size="20px" fill="#1e1e1e" text-anchor="start" style="white-space: pre;" direction="ltr" dominant-baseline="text-before-edge">i</text></g><g stroke-linecap="round"><g transform="translate(464.66668701171875 37.333343505859375) rotate(0 1.3917519048368945 36.864062126725905)"><path d="M-0.92 -0.61 C-0.82 11.77, 0.87 62.08, 1.57 74.34 M0.8 1.68 C1.16 13.69, 3.37 60.39, 3.71 72.39" stroke="#1e1e1e" stroke-width="1" fill="none"></path></g><g transform="translate(464.66668701171875 37.333343505859375) rotate(0 1.3917519048368945 36.864062126725905)"><path d="M-8.65 42.79 C-2.73 56.28, -0.69 66.9, 5.33 73.74 M-7.84 45.36 C-4.08 51.46, -1.67 58.77, 3.78 73.18" stroke="#1e1e1e" stroke-width="1" fill="none"></path></g><g transform="translate(464.66668701171875 37.333343505859375) rotate(0 1.3917519048368945 36.864062126725905)"><path d="M11.85 42 C9.94 55.64, 4.15 66.55, 5.33 73.74 M12.67 44.57 C11.28 50.94, 8.54 58.44, 3.78 73.18" stroke="#1e1e1e" stroke-width="1" fill="none"></path></g></g><mask></mask><g transform="translate(460 11) rotate(0 3.7699966430664062 12.5)"><text x="0" y="0" font-family="HanziPen SC, HanziPen Remote, Virgil, KaiTi, Segoe UI Emoji" font-size="20px" fill="#1e1e1e" text-anchor="start" style="white-space: pre;" direction="ltr" dominant-baseline="text-before-edge">j</text></g><g transform="translate(10 43) rotate(0 16.409988403320312 12.5)"><text x="0" y="0" font-family="HanziPen SC, HanziPen Remote, Virgil, KaiTi, Segoe UI Emoji" font-size="20px" fill="#1e1e1e" text-anchor="start" style="white-space: pre;" direction="ltr" dominant-baseline="text-before-edge">num</text></g><g transform="translate(18 197) rotate(0 19.589988708496094 12.5)"><text x="0" y="0" font-family="HanziPen SC, HanziPen Remote, Virgil, KaiTi, Segoe UI Emoji" font-size="20px" fill="#1e1e1e" text-anchor="start" style="white-space: pre;" direction="ltr" dominant-baseline="text-before-edge">temp</text></g><g stroke-linecap="round"><g transform="translate(276.66668701171875 25.333343505859375) rotate(0 -2.02618771606123 41.1217149166111)"><path d="M-0.9 1.01 C-1.55 14.35, -3.47 67.07, -3.73 80.37 M0.83 0.5 C-0.03 13.98, -4.29 68.14, -4.88 81.75" stroke="#1e1e1e" stroke-width="1" fill="none"></path></g><g transform="translate(276.66668701171875 25.333343505859375) rotate(0 -2.02618771606123 41.1217149166111)"><path d="M-11.65 52.31 C-11.09 63.6, -7.77 72.38, -3.52 80.82 M-13.8 52.78 C-11.99 60.69, -8.91 68.26, -4.1 81" stroke="#1e1e1e" stroke-width="1" fill="none"></path></g><g transform="translate(276.66668701171875 25.333343505859375) rotate(0 -2.02618771606123 41.1217149166111)"><path d="M8.83 53.6 C2.93 64.34, -0.2 72.7, -3.52 80.82 M6.68 54.08 C2.92 61.69, 0.43 68.91, -4.1 81" stroke="#1e1e1e" stroke-width="1" fill="none"></path></g></g><mask></mask><g transform="translate(178 50) rotate(0 20 12.5)"><text x="0" y="0" font-family="HanziPen SC, HanziPen Remote, Virgil, KaiTi, Segoe UI Emoji" font-size="20px" fill="#1e1e1e" text-anchor="start" style="white-space: pre;" direction="ltr" dominant-baseline="text-before-edge">有序</text></g><g transform="translate(356 58) rotate(0 20 12.5)"><text x="0" y="0" font-family="HanziPen SC, HanziPen Remote, Virgil, KaiTi, Segoe UI Emoji" font-size="20px" fill="#1e1e1e" text-anchor="start" style="white-space: pre;" direction="ltr" dominant-baseline="text-before-edge">有序</text></g></svg>