<svg version="1.1" xmlns="http://www.w3.org/2000/svg" viewBox="0 0 574.6397399902344 456.90478024830577" width="574.6397399902344" height="456.90478024830577">
    <!-- svg-source:excalidraw -->

    <defs>
        <style class="style-fonts">
            @font-face {
            font-family: "Virgil";
            src: url("https://unpkg.com/revedraw@1.0.0-alpha.10/dist/excalidraw-assets/Virgil.woff2");
            }
            @font-face {
            font-family: "Cascadia";
            src: url("https://unpkg.com/revedraw@1.0.0-alpha.10/dist/excalidraw-assets/Cascadia.woff2");
            }
        </style>

    </defs>
    <rect x="0" y="0" width="574.6397399902344" height="456.90478024830577" fill="#ffffff"></rect><g stroke-linecap="round"><g transform="translate(110.66668701171875 74.33334350585938) rotate(0 180.8852701670071 1.6936116642365278)"><path d="M0.82 -0.94 C60.99 -0.41, 301.95 2.18, 361.98 2.98 M-0.21 1.18 C59.78 1.9, 301.32 4.23, 361.37 4.33" stroke="#1e1e1e" stroke-width="1" fill="none"></path></g></g><mask></mask><g transform="translate(88.66668701171875 58.333343505859375) rotate(0 2.42999267578125 12.5)"><text x="0" y="0" font-family="HanziPen SC, HanziPen Remote, Virgil, KaiTi, Segoe UI Emoji" font-size="20px" fill="#1e1e1e" text-anchor="start" style="white-space: pre;" direction="ltr" dominant-baseline="text-before-edge">l</text></g><g transform="translate(484.00006103515625 61.66668701171875) rotate(0 4.019996643066406 12.5)"><text x="0" y="0" font-family="HanziPen SC, HanziPen Remote, Virgil, KaiTi, Segoe UI Emoji" font-size="20px" fill="#1e1e1e" text-anchor="start" style="white-space: pre;" direction="ltr" dominant-baseline="text-before-edge">r</text></g><g transform="translate(255.3333740234375 88.33334350585938) rotate(0 4.459999084472656 12.5)"><text x="0" y="0" font-family="HanziPen SC, HanziPen Remote, Virgil, KaiTi, Segoe UI Emoji" font-size="20px" fill="#1e1e1e" text-anchor="start" style="white-space: pre;" direction="ltr" dominant-baseline="text-before-edge">x</text></g><g transform="translate(10 10) rotate(0 16.409988403320312 12.5)"><text x="0" y="0" font-family="HanziPen SC, HanziPen Remote, Virgil, KaiTi, Segoe UI Emoji" font-size="20px" fill="#1e1e1e" text-anchor="start" style="white-space: pre;" direction="ltr" dominant-baseline="text-before-edge">num</text></g><g transform="translate(94 189.33331298828125) rotate(0 235.3198699951172 37.5)"><text x="0" y="0" font-family="HanziPen SC, HanziPen Remote, Virgil, KaiTi, Segoe UI Emoji" font-size="20px" fill="#1e1e1e" text-anchor="start" style="white-space: pre;" direction="ltr" dominant-baseline="text-before-edge">1. 确定分界点x，有三种取法num[l],num[r],num[random]</text><text x="0" y="25" font-family="HanziPen SC, HanziPen Remote, Virgil, KaiTi, Segoe UI Emoji" font-size="20px" fill="#1e1e1e" text-anchor="start" style="white-space: pre;" direction="ltr" dominant-baseline="text-before-edge">2. 想办法使&lt;=x的都在x左侧，&gt;=x的都在x右侧</text><text x="0" y="50" font-family="HanziPen SC, HanziPen Remote, Virgil, KaiTi, Segoe UI Emoji" font-size="20px" fill="#1e1e1e" text-anchor="start" style="white-space: pre;" direction="ltr" dominant-baseline="text-before-edge">3. 递归处理左右两侧</text></g><g transform="translate(165 87) rotate(0 15.519989013671875 12.5)"><text x="0" y="0" font-family="HanziPen SC, HanziPen Remote, Virgil, KaiTi, Segoe UI Emoji" font-size="20px" fill="#1e1e1e" text-anchor="start" style="white-space: pre;" direction="ltr" dominant-baseline="text-before-edge">&lt;=x</text></g><g transform="translate(351.66668701171875 96.33331298828125) rotate(0 15.519989013671875 12.5)"><text x="0" y="0" font-family="HanziPen SC, HanziPen Remote, Virgil, KaiTi, Segoe UI Emoji" font-size="20px" fill="#1e1e1e" text-anchor="start" style="white-space: pre;" direction="ltr" dominant-baseline="text-before-edge">&gt;=x</text></g><g stroke-linecap="round"><g transform="translate(162.31328582763672 407.90478024830577) rotate(0 180.128974493593 1.4673480436625255)"><path d="M-1.16 -0.11 C58.94 0.41, 301.18 3.41, 361.41 4.15 M0.44 -1.21 C60.32 -0.51, 300.15 1.84, 360.51 2.45" stroke="#1e1e1e" stroke-width="1" fill="none"></path></g></g><mask></mask><g transform="translate(140.31328582763672 391.90478024830577) rotate(0 2.42999267578125 12.5)"><text x="0" y="0" font-family="HanziPen SC, HanziPen Remote, Virgil, KaiTi, Segoe UI Emoji" font-size="20px" fill="#1e1e1e" text-anchor="start" style="white-space: pre;" direction="ltr" dominant-baseline="text-before-edge">l</text></g><g transform="translate(535.6466598510742 395.23812375416514) rotate(0 4.019996643066406 12.5)"><text x="0" y="0" font-family="HanziPen SC, HanziPen Remote, Virgil, KaiTi, Segoe UI Emoji" font-size="20px" fill="#1e1e1e" text-anchor="start" style="white-space: pre;" direction="ltr" dominant-baseline="text-before-edge">r</text></g><g transform="translate(306.97997283935547 421.90478024830577) rotate(0 4.459999084472656 12.5)"><text x="0" y="0" font-family="HanziPen SC, HanziPen Remote, Virgil, KaiTi, Segoe UI Emoji" font-size="20px" fill="#1e1e1e" text-anchor="start" style="white-space: pre;" direction="ltr" dominant-baseline="text-before-edge">x</text></g><g stroke-linecap="round"><g transform="translate(174.31328582763672 336.5714367424464) rotate(0 -0.6572829216066793 34.128391539240255)"><path d="M-0.87 0.88 C-1.11 12.04, -1 55.52, -1.28 66.73 M0.88 0.3 C0.47 11.62, -2.01 56.96, -2.2 67.96" stroke="#1e1e1e" stroke-width="1" fill="none"></path></g><g transform="translate(174.31328582763672 336.5714367424464) rotate(0 -0.6572829216066793 34.128391539240255)"><path d="M-9.89 39.48 C-9.51 46.5, -4.21 55.69, -4.1 66.05 M-11.92 40.33 C-8 51.08, -4.36 61.29, -1.24 68.03" stroke="#1e1e1e" stroke-width="1" fill="none"></path></g><g transform="translate(174.31328582763672 336.5714367424464) rotate(0 -0.6572829216066793 34.128391539240255)"><path d="M10.62 40.28 C4.52 46.89, 3.33 55.83, -4.1 66.05 M8.58 41.12 C4.4 51.58, -0.07 61.48, -1.24 68.03" stroke="#1e1e1e" stroke-width="1" fill="none"></path></g></g><mask></mask><g stroke-linecap="round"><g transform="translate(516.3132858276367 337.90478024830577) rotate(0 1.0924282873328366 37.12168908491731)"><path d="M0.06 -0.6 C0.45 11.73, 1.22 62.6, 1.47 74.84 M-1.37 1.7 C-0.56 13.62, 2.68 61.18, 3.56 73.16" stroke="#1e1e1e" stroke-width="1" fill="none"></path></g><g transform="translate(516.3132858276367 337.90478024830577) rotate(0 1.0924282873328366 37.12168908491731)"><path d="M-9.65 43.77 C-4.27 50.17, -4.79 56.34, 5.46 75 M-9.18 46.17 C-5.56 53.43, -0.33 62.6, 3.37 73.21" stroke="#1e1e1e" stroke-width="1" fill="none"></path></g><g transform="translate(516.3132858276367 337.90478024830577) rotate(0 1.0924282873328366 37.12168908491731)"><path d="M10.82 42.33 C11.55 49.07, 6.36 55.56, 5.46 75 M11.29 44.73 C8.6 52.62, 7.53 62.24, 3.37 73.21" stroke="#1e1e1e" stroke-width="1" fill="none"></path></g></g><mask></mask><g transform="translate(61.64659881591797 343.5714367424464) rotate(0 16.409988403320312 12.5)"><text x="0" y="0" font-family="HanziPen SC, HanziPen Remote, Virgil, KaiTi, Segoe UI Emoji" font-size="20px" fill="#1e1e1e" text-anchor="start" style="white-space: pre;" direction="ltr" dominant-baseline="text-before-edge">num</text></g><g transform="translate(172.3333740234375 309) rotate(0 2.589996337890625 12.5)"><text x="0" y="0" font-family="HanziPen SC, HanziPen Remote, Virgil, KaiTi, Segoe UI Emoji" font-size="20px" fill="#1e1e1e" text-anchor="start" style="white-space: pre;" direction="ltr" dominant-baseline="text-before-edge">i</text></g><g transform="translate(510 307) rotate(0 3.7699966430664062 12.5)"><text x="0" y="0" font-family="HanziPen SC, HanziPen Remote, Virgil, KaiTi, Segoe UI Emoji" font-size="20px" fill="#1e1e1e" text-anchor="start" style="white-space: pre;" direction="ltr" dominant-baseline="text-before-edge">j</text></g></svg>